<?xml version="1.0" encoding="UTF-8"?><svg id="a" xmlns="http://www.w3.org/2000/svg" viewBox="0 0 524.41 113.39">
<svg viewBox="46.928 85.706 123.64 113.39" width="123.64" height="113.39">
<g id="b" transform="matrix(1, 0, 0, 1, 46.927796, 85.705812)">
  <path class="c" d="M36.44,41.1h0v-2.44h0c-6.41,0-11.63-5.22-11.63-11.63s5.22-11.63,11.63-11.63c3.41,0,6.47,1.47,8.6,3.81l1.81-1.64c-2.58-2.83-6.29-4.61-10.41-4.61-7.76,0-14.08,6.31-14.08,14.08s6.31,14.08,14.08,14.08Z" style="stroke: rgb(12, 17, 177); fill: rgb(51, 54, 143);"></path>
  <path class="c" d="M 92.6 14.199 C 96.552 14.199 99.77 16.892 99.77 20.199 C 99.77 23.506 96.552 26.199 92.6 26.199 L 92.6 27.458 C 97.384 27.458 101.28 24.202 101.28 20.194 C 101.28 16.185 97.39 12.93 92.6 12.93 C 90.06 12.93 87.773 13.848 86.182 15.308 L 87.298 16.154 C 88.611 14.947 90.504 14.189 92.6 14.189 L 92.6 14.199 Z" style="stroke: rgb(12, 17, 177); fill: rgb(51, 54, 143);"></path>
  <path class="c" d="M86.87,106.79c-1.82,0-3.3,1.48-3.3,3.3s1.48,3.3,3.3,3.3,3.3-1.48,3.3-3.3-1.48-3.3-3.3-3.3Z" style="stroke: rgb(12, 17, 177); fill: rgb(51, 54, 143);"></path>
  <path class="c" d="M36.77,106.79c-1.82,0-3.3,1.48-3.3,3.3s1.48,3.3,3.3,3.3,3.3-1.48,3.3-3.3-1.48-3.3-3.3-3.3Z" style="stroke: rgb(12, 17, 177); fill: rgb(51, 54, 143);"></path>
  <path class="c" d="M123.12,59.99c.73-1.09,.43-2.57-.66-3.3s-2.57-.43-3.3,.66l-2.23,3.35-2.74-1.83-1.82,2.73,2.74,1.83-20.52,30.78,3.96,2.64,20.52-30.78,2.74,1.83,1.83-2.74-2.74-1.83,2.23-3.35Z" style="stroke: rgb(12, 17, 177); fill: rgb(51, 54, 143);"></path>
  <polygon class="c" points="29.96 89.65 27.22 91.48 3.96 56.59 .47 55.64 0 59.22 23.26 94.12 20.52 95.95 22.35 98.68 31.78 92.39 29.96 89.65" style="stroke: rgb(12, 17, 177); fill: rgb(51, 54, 143);"></polygon>
  <path class="c" d="M 60.249 39.954 C 59.869 40.674 59.169 42.154 59.169 43.114 C 59.169 43.844 59.759 44.434 60.489 44.434 C 61.219 44.434 61.809 43.844 61.809 43.114 C 61.809 42.154 61.109 40.674 60.729 39.954 C 60.629 39.764 60.359 39.764 60.259 39.954 L 60.249 39.954 Z" style="stroke: rgb(12, 17, 177); fill: rgb(51, 54, 143);"></path>
  <path class="c" d="M 60.602 77.757 C 59.565 75.791 57.24 71.751 57.24 69.131 C 57.24 67.138 59.264 65.528 61.257 65.528 C 63.25 65.528 64.86 67.138 64.86 69.131 C 64.86 71.751 62.949 75.791 61.912 77.757 C 61.639 78.275 60.902 78.275 60.629 77.757 L 60.602 77.757 Z" style="stroke: rgb(12, 17, 177); fill: rgb(51, 54, 143);"></path>
  <path class="c" d="M67.91,87.95l16.76,11.64,2.82-4.2-11.33-13.26c.48-.6,.94-1.22,1.34-1.88l8.87,3.23c5.13,1.87,10.81-.78,12.67-5.91l-17.69-6.44c-.65-.24-1.09-.86-1.08-1.55v-1.88l16.57,2.92c5.38,.95,10.51-2.64,11.46-8.02l-26.66-4.7c-.79-.14-1.36-.82-1.36-1.62v-1.56h27.03c5.46,0,9.89-4.43,9.89-9.89h-32.81c-1.18,1.41-2.95,2.31-4.93,2.31-3.55,0-6.43-2.88-6.43-6.43s2.88-6.43,6.43-6.43h6.17l3.62,1.81,1.94-4.65c.6-1.43,.44-3.05-.42-4.34-.86-1.29-2.29-2.06-3.84-2.06h-1.65l-1.48-1.48c-.74-.74-1.75-1.16-2.8-1.16h-8.91l1.32,1.71c-5.44,1.86-9.75,6.17-11.6,11.61-1.85-5.45-6.15-9.76-11.6-11.61l1.32-1.71h-8.91c-1.05,0-2.06,.42-2.8,1.16l-1.48,1.48h-1.65c-1.55,0-2.98,.77-3.84,2.06-.86,1.29-1.02,2.91-.42,4.34l1.94,4.65,3.62-1.81h6.17c3.55,0,6.43,2.88,6.43,6.43s-2.88,6.43-6.43,6.43c-1.98,0-3.75-.9-4.93-2.31H6.44c0,5.46,4.43,9.89,9.89,9.89h27.03v1.56c0,.8-.57,1.48-1.36,1.62l-26.66,4.7c.95,5.38,6.08,8.97,11.46,8.02l16.57-2.92v1.88c0,.69-.43,1.31-1.08,1.55l-17.69,6.44c1.87,5.13,7.54,7.78,12.67,5.91l8.87-3.23c.41,.66,.86,1.29,1.35,1.89l-11.34,13.23,2.83,4.22,16.76-11.64c.56,.2,1.13,.36,1.71,.5l-5.65,10.77,2.68,1.92,3.4-2.73,2.64,7.06h2.64l2.64-7.06,3.4,2.73,2.68-1.92-5.65-10.77c.58-.14,1.15-.31,1.71-.51Zm16.51-60.27h2.5c.67,0,1.27,.32,1.64,.88,.37,.56,.44,1.24,.18,1.86l-.85,2.04-1.65-.83h-4.46v-1.81l2.64-2.14Zm-3.9-3.49c1.01,0,1.84,.82,1.84,1.84s-.82,1.84-1.84,1.84-1.84-.82-1.84-1.84,.82-1.84,1.84-1.84Zm-38.68,7.44h-4.46l-1.65,.83-.85-2.04c-.26-.62-.19-1.3,.18-1.86,.37-.56,.97-.88,1.64-.88h2.5l2.64,2.14v1.81Zm1.27-3.76c-1.01,0-1.84-.82-1.84-1.84s.82-1.84,1.84-1.84,1.84,.82,1.84,1.84-.82,1.84-1.84,1.84Zm3.54,20.91h30.32v9.67h-30.32v-9.67Zm15.16,36.92c-8.15,0-14.8-6.44-15.15-14.5h-.02v-10.17h30.32v10.17h-.02c-.35,8.07-6.99,14.5-15.15,14.5Z" style="stroke: rgb(12, 17, 177); fill: rgb(51, 54, 143);"></path>
  <path class="c" d="M61.82,15.82c2.58,0,5.01,.65,7.13,1.78l2.09-8.38-5.27,1.32-2.64-2.64v-2.97h2.64V2.64h-2.64V0h-2.64V2.64h-2.63v2.31h2.63v2.97l-2.63,2.64-5.27-1.32,2.1,8.39c2.13-1.14,4.56-1.79,7.14-1.79Z" style="stroke: rgb(12, 17, 177); fill: rgb(51, 54, 143);"></path>
  <path class="c" d="M95.96,99.09l-5.02-3.35-4.67,7,5.03,3.35c1.93,1.29,4.54,.76,5.83-1.17,1.29-1.93,.77-4.54-1.17-5.83Z" style="stroke: rgb(12, 17, 177); fill: rgb(51, 54, 143);"></path>
  <path class="c" d="M32.69,95.74l-5.02,3.35c-1.93,1.29-2.45,3.9-1.17,5.83,1.29,1.93,3.9,2.45,5.83,1.17l5.03-3.35-4.67-7Z" style="stroke: rgb(12, 17, 177); fill: rgb(51, 54, 143);"></path>
  <polygon class="c" points="53.84 53.43 52.88 51.59 52.39 51.59 51.44 53.43 49.96 51.59 49.57 51.59 49.57 55.67 55.7 55.67 55.7 51.59 55.31 51.59 53.84 53.43" style="stroke: rgb(12, 17, 177); fill: rgb(51, 54, 143);"></polygon>
  <polygon class="c" points="72.2 53.43 71.24 51.59 70.75 51.59 69.79 53.43 68.31 51.59 67.93 51.59 67.93 55.67 74.06 55.67 74.06 51.59 73.67 51.59 72.2 53.43" style="stroke: rgb(12, 17, 177); fill: rgb(51, 54, 143);"></polygon>
  <polygon class="c" points="99.936 37.09 98.986 40.507 98.496 40.507 97.536 37.09 96.066 40.507 95.676 40.507 95.676 32.929 101.806 32.929 101.806 40.507 101.416 40.507 99.936 37.09" style="stroke: rgb(12, 17, 177); fill: rgb(51, 54, 143);"></polygon>
</g>
</svg>
</svg>
